<svg xmlns="http://www.w3.org/2000/svg" viewBox="0 0 720 420" role="img" aria-labelledby="title desc">
  <title id="title">Kunming technology map graphic</title>
  <desc id="desc">A simple line map of Kunming districts connected by technology nodes.</desc>
  <rect width="720" height="420" fill="#f5f1e8"/>
  <path d="M83 303C154 230 217 210 273 242c53 31 77 88 142 75 67-13 76-89 142-99 47-7 82 19 114 57" fill="none" stroke="#111827" stroke-width="3" stroke-linecap="round"/>
  <path d="M94 143c69 30 124 29 166-2 59-43 101-68 159-41 59 27 73 84 141 83 39 0 73-15 101-45" fill="none" stroke="#d44a2f" stroke-width="3" stroke-linecap="round"/>
  <path d="M190 337c19-83 53-142 102-178 55-40 113-45 176-15 56 27 94 71 114 132" fill="none" stroke="#1c7c54" stroke-width="3" stroke-linecap="round"/>
  <g fill="#111827">
    <circle cx="147" cy="267" r="8"/>
    <circle cx="258" cy="141" r="8"/>
    <circle cx="371" cy="115" r="8"/>
    <circle cx="473" cy="173" r="8"/>
    <circle cx="584" cy="221" r="8"/>
    <circle cx="328" cy="280" r="8"/>
  </g>
  <g font-family="PingFang SC, Microsoft YaHei, sans-serif" font-size="20" fill="#111827">
    <text x="114" y="248">五华</text>
    <text x="224" y="122">高新</text>
    <text x="334" y="96">盘龙</text>
    <text x="486" y="158">官渡</text>
    <text x="596" y="208">呈贡</text>
    <text x="286" y="306">西山</text>
  </g>
  <g fill="none" stroke="#111827" stroke-width="1.5" opacity="0.35">
    <circle cx="360" cy="210" r="156"/>
    <circle cx="360" cy="210" r="95"/>
    <circle cx="360" cy="210" r="36"/>
  </g>
</svg>
